<?xml version="1.0" encoding="utf-8"?>
<!-- Generator: Adobe Illustrator 25.2.1, SVG Export Plug-In . SVG Version: 6.00 Build 0)  -->
<svg version="1.1" xmlns="http://www.w3.org/2000/svg" xmlns:xlink="http://www.w3.org/1999/xlink" x="0px" y="0px"
	 viewBox="0 0 64 64" style="enable-background:new 0 0 64 64;" xml:space="preserve">
<style type="text/css">
	.st0{fill:#010202;}
	.st1{opacity:0.7;fill:#FBBC20;}
	.st2{fill:none;stroke:#010202;stroke-width:3;stroke-miterlimit:10;}
	.st3{fill:none;stroke:#010202;stroke-width:2;stroke-miterlimit:10;}
	.st4{stroke:#000000;stroke-width:0.5;stroke-miterlimit:10;}
	.st5{fill:none;stroke:#010202;stroke-miterlimit:10;}
</style>
<g id="Слой_2">
	<path class="st0" d="M39.3,22.2c-0.3-0.7-1-1.7-2.1-2.7c-1.2-1.1-2.5-1.5-3-1.7c-0.5-0.2-1-0.2-1.3-0.3c-0.1,0-0.2-0.1-0.3-0.1
		c0,0-0.3-0.2-0.4-0.6c-0.1-0.5,0.2-0.9,0.5-1.1c0.2-0.1,0.3-0.1,0.5-0.1c0.2,0,0.3,0,0.4,0c0.9,0.2,2.7,0.7,4.4,2
		c1.8,1.4,2.7,2.9,3.1,3.8c0,0.1,0.1,0.2,0.1,0.4c0,0.2,0.1,0.4,0,0.6c-0.1,0.3-0.3,0.6-0.7,0.7c-0.5,0.1-0.9-0.2-1-0.4
		c0,0-0.1-0.2-0.2-0.4C39.3,22.2,39.3,22.2,39.3,22.2z"/>
	<g>
		<path class="st0" d="M30.7,42.3h-1.2v-13c0-0.1-0.1-0.2-0.2-0.4c-0.1-0.2-0.3-0.5-0.6-0.7c-0.5-0.3-1.1-0.2-1.2-0.2
			c-0.5,0.1-0.8,0.4-0.9,0.5c-0.1,0.1-0.4,0.4-0.5,0.8c-0.1,0.4,0,0.8,0.1,0.9c0.1,0.2,0.2,0.5,0.6,0.8c0.3,0.2,0.6,0.3,0.7,0.3
			c0,0.4,0,0.8,0,1.2c-0.3,0-0.8-0.1-1.3-0.5c-0.7-0.5-1-1.2-1-1.4c-0.1-0.3-0.3-0.9-0.1-1.7c0.1-0.2,0.3-1,1.1-1.6
			c0.1-0.1,0.7-0.5,1.4-0.5c0.2,0,0.8,0,1.4,0.2c0.2,0.1,0.8,0.4,1.3,1c0.3,0.5,0.4,0.9,0.4,1.2C30.7,33.6,30.7,37.9,30.7,42.3z"/>
		<path class="st0" d="M33.6,42.3h-1.2v-13c0-0.2,0.1-0.4,0.3-0.7c0.1-0.3,0.3-0.7,0.7-1c0.5-0.4,0.9-0.5,1.2-0.6
			c0.7-0.2,1.2-0.1,1.4,0c0.6,0.1,1,0.5,1.1,0.6c0.1,0.1,0.6,0.5,0.9,1.2c0.3,0.8,0.1,1.5,0.1,1.6c-0.2,0.9-0.9,1.4-1.1,1.6
			c-0.6,0.4-1.2,0.6-1.4,0.6c0-0.4,0-0.8,0-1.2c0.2,0,0.5-0.1,0.8-0.3c0.5-0.4,0.5-1.1,0.6-1.2c0-0.2,0-0.7-0.4-1.2
			c-0.5-0.5-1.1-0.5-1.3-0.5c-0.2,0-0.7,0-1.2,0.5c-0.3,0.3-0.4,0.6-0.5,0.8C33.6,33.6,33.6,37.9,33.6,42.3z"/>
		<rect x="31" y="27.8" transform="matrix(-1.836970e-16 1 -1 -1.836970e-16 63.395 0.2957)" class="st0" width="1.2" height="8"/>
	</g>
	<circle class="st0" cx="41.3" cy="26" r="1"/>
</g>
<g id="Слой_3">
	<circle class="st1" cx="43.6" cy="43.9" r="9.4"/>
	<path class="st2" d="M44.9,26.4c-0.2,1.7-0.8,2.9-1.8,4.8c-0.7,1.4-1.3,2.5-1.8,3.2c-0.9,0.1-2.1,0.5-3.3,1.3
		c-2.8,1.8-3.8,4.7-4,5.6c-2.6,0-5.3,0-7.9,0c-0.1-2.5-0.9-4.1-1.5-5.1c-1.4-2.3-2.6-2.2-4.5-5c-0.6-0.9-1.6-2.5-1.9-4.8
		c-0.2-1.8,0.1-3.2,0.2-3.8c1-4.3,4.1-6.7,5.1-7.4c1.8-1.3,3.5-1.8,4.1-2c1.6-0.4,3-0.4,4-0.4c0.9,0,2.2,0,3.8,0.5
		c2.3,0.6,3.8,1.7,4.4,2.1c3.1,2.3,4.2,5.4,4.5,6.5C44.6,22.5,45.1,24.2,44.9,26.4z"/>
	<path class="st0" d="M33.6,51.6c0,0.2-0.1,0.5-0.3,0.7c-0.1,0.1-0.2,0.2-0.3,0.3c-0.2,0.1-0.3,0.2-0.5,0.3c-0.3,0.1-0.6,0.2-1,0.2
		c-0.3,0-0.5,0-0.7-0.1c-0.2,0-0.3-0.1-0.5-0.2c-0.2-0.1-0.4-0.2-0.6-0.5c-0.1-0.1-0.2-0.3-0.3-0.7c-0.2,0-1.2,0.1-1.9-0.7
		c-0.2-0.2-0.4-0.5-0.4-0.7c3,0,6,0,8.9,0c-0.1,0.2-0.3,0.6-0.6,0.9C34.7,51.8,33.8,51.7,33.6,51.6z"/>
	<path class="st0" d="M33.9,45.1H26c-0.5,0-0.8-0.4-0.8-0.8v-0.2c0-0.5,0.4-0.8,0.8-0.8h7.9c0.5,0,0.8,0.4,0.8,0.8v0.2
		C34.7,44.7,34.4,45.1,33.9,45.1z"/>
	<path class="st0" d="M34,47.8h-7.2c-0.5,0-0.8-0.4-0.8-0.8v-0.2c0-0.5,0.4-0.8,0.8-0.8H34c0.5,0,0.8,0.4,0.8,0.8v0.2
		C34.9,47.4,34.5,47.8,34,47.8z"/>
	<path class="st0" d="M35.2,50.4h-7.8c-0.5,0-0.8-0.4-0.8-0.8v-0.2c0-0.5,0.4-0.8,0.8-0.8h7.8c0.5,0,0.8,0.4,0.8,0.8v0.2
		C36.1,50.1,35.7,50.4,35.2,50.4z"/>
	<path class="st3" d="M49.4,52.4c-0.4,0.3-0.9,0.7-1.7,1.1c0,0,0,0,0,0c0,0-1.7,0.6-3.5,0.6c-5.4,0-9.8-4.4-9.8-9.8
		c0-5.4,4.4-9.8,9.8-9.8s9.8,4.4,9.8,9.8c0,0.6-0.1,1.3-0.2,1.9c-0.1,0.5-0.2,1-0.3,1.3"/>
	<g>
		<path d="M44.5,39.7c0.6,0,1.3,0.1,1.9,0.4c0.3,0.1,0.5,0.2,0.6,0.2c0.1,0,0.2,0,0.4-0.1c0.1,0,0.1,0,0.2,0c0.2,0,0.4,0.1,0.6,0.3
			c0.4,0.5,0.6,1.1,0.6,1.9c0,0.5-0.2,0.9-0.5,1.2c-0.2,0.1-0.4,0.2-0.7,0.2c-0.2,0-0.4,0-0.5-0.1c-0.1-0.1-0.3-0.3-0.4-0.5
			c-0.2-0.3-0.3-0.6-0.5-0.7c-0.1-0.2-0.3-0.3-0.4-0.4c-0.4-0.3-0.9-0.4-1.3-0.4c-0.5,0-0.8,0.2-1.1,0.5c-0.3,0.3-0.4,0.8-0.4,1.3
			c0,0.8,0.2,1.4,0.6,2.1c0.5,0.8,1.3,1.3,2.2,1.3c0.4,0,0.7-0.1,1.1-0.2c0.4-0.1,0.6-0.3,0.8-0.5c0.2-0.2,0.3-0.2,0.4-0.2
			c0.2,0,0.3,0.1,0.4,0.2s0.2,0.3,0.2,0.5c0,0.3-0.1,0.5-0.2,0.9c-0.2,0.3-0.3,0.6-0.6,0.7c-0.1,0.1-0.3,0.1-0.6,0.2
			c-0.2,0-0.4,0.1-0.7,0.2c-0.7,0.3-1.3,0.5-2,0.5c-0.7,0-1.5-0.2-2.2-0.5c-0.8-0.4-1.5-1-2-1.8c-0.5-0.8-0.7-1.6-0.7-2.4
			c0-1,0.3-1.9,0.9-2.7c0.5-0.7,1.2-1.2,2.1-1.6C43.2,39.8,43.9,39.7,44.5,39.7z"/>
	</g>
	<g>
		<path class="st4" d="M54,53.8c0.5,0,0.9-0.1,1.3-0.4c0.4-0.3,0.5-0.7,0.5-1.2c0-0.4-0.1-0.8-0.4-1.1c-0.3-0.3-0.7-0.4-1.1-0.4
			c-0.3,0-0.6,0-0.8,0.1c-0.2,0.1-0.4,0.2-0.5,0.4c-0.1,0.2-0.2,0.3-0.4,0.6c-0.1,0.2-0.2,0.5-0.3,0.7c-0.1,0.1-0.2,0.2-0.3,0.3
			c-0.1,0.1-0.3,0.1-0.5,0.1c-0.2,0-0.4-0.1-0.6-0.3c-0.2-0.2-0.3-0.4-0.3-0.7c0-0.3,0.1-0.6,0.3-0.9c0.2-0.3,0.4-0.6,0.7-0.9
			c0.3-0.3,0.7-0.5,1.2-0.7c0.5-0.2,1-0.3,1.6-0.3c0.5,0,1,0.1,1.4,0.2c0.4,0.1,0.8,0.3,1.1,0.6c0.3,0.3,0.6,0.6,0.7,0.9
			c0.2,0.4,0.2,0.7,0.2,1.1c0,0.5-0.1,1-0.3,1.4c-0.2,0.4-0.6,0.8-1,1.1c0.4,0.2,0.8,0.5,1.1,0.8c0.3,0.3,0.5,0.6,0.6,1
			c0.1,0.4,0.2,0.7,0.2,1.1c0,0.5-0.1,1-0.3,1.4c-0.2,0.5-0.5,0.9-0.9,1.2c-0.4,0.4-0.8,0.6-1.4,0.8c-0.5,0.2-1.1,0.3-1.7,0.3
			c-0.6,0-1.2-0.1-1.7-0.3c-0.5-0.2-0.9-0.5-1.3-0.9c-0.3-0.3-0.6-0.7-0.7-1.1c-0.2-0.4-0.3-0.7-0.3-0.9c0-0.3,0.1-0.6,0.3-0.8
			c0.2-0.2,0.5-0.3,0.8-0.3c0.1,0,0.3,0,0.4,0.1c0.1,0.1,0.2,0.2,0.3,0.3c0.3,0.7,0.6,1.3,0.9,1.7c0.3,0.4,0.8,0.5,1.3,0.5
			c0.3,0,0.7-0.1,1-0.2s0.6-0.4,0.8-0.7c0.2-0.3,0.3-0.7,0.3-1.1c0-0.6-0.2-1.1-0.5-1.5c-0.3-0.4-0.8-0.5-1.4-0.5
			c-0.1,0-0.3,0-0.5,0c-0.2,0-0.4,0-0.4,0c-0.3,0-0.5-0.1-0.7-0.2c-0.2-0.1-0.2-0.4-0.2-0.6c0-0.3,0.1-0.5,0.3-0.6
			c0.2-0.2,0.5-0.2,0.9-0.2H54z"/>
	</g>
	<path class="st2" d="M49.9,73.1"/>
	<path class="st5" d="M48.2,50.5c-0.3,0.3-0.7,0.5-1.3,0.8c0,0,0,0,0,0c0,0-1.3,0.5-2.7,0.5c-4.1,0-7.5-3.4-7.5-7.5s3.3-7.5,7.5-7.5
		s7.5,3.4,7.5,7.5c0,0.5,0,1-0.1,1.4c-0.1,0.4-0.2,0.7-0.3,1"/>
</g>
</svg>
