<?xml version="1.0" encoding="utf-8"?>
<!-- Generator: Adobe Illustrator 25.2.1, SVG Export Plug-In . SVG Version: 6.00 Build 0)  -->
<svg version="1.1" id="Слой_2" xmlns="http://www.w3.org/2000/svg" xmlns:xlink="http://www.w3.org/1999/xlink" x="0px" y="0px"
	 viewBox="0 0 64 64" style="enable-background:new 0 0 64 64;" xml:space="preserve">
<style type="text/css">
	.st0{stroke:#000000;stroke-width:0.5;stroke-miterlimit:10;}
	.st1{fill:none;stroke:#000000;stroke-width:4;stroke-miterlimit:10;}
</style>
<g>
	<path class="st0" d="M30.4,30.2c0.1-0.4,0-0.7-0.3-0.7c-0.1,0-0.3,0.1-0.6,0.3c-0.4-0.2-0.6-1.1,0-1.5c1-0.8,2-1.3,3.1-1.3
		c1,0,1.6,0.5,1.3,1.5l-1.7,8.1c-0.3,1.4,0.1,2,0.6,2c0.5,0,1.1-0.3,1.6-1.3c0.5,0,0.8,0.3,0.8,0.8c0,2-2.3,3.3-3.9,3.3
		c-1.4,0-3.2-0.8-2.7-3.3L30.4,30.2z M33.5,21.4c1.1,0,1.9,0.9,1.8,2c-0.2,1.1-1.1,2-2.2,2c-1.1,0-1.9-0.9-1.7-2
		C31.5,22.2,32.4,21.4,33.5,21.4z"/>
</g>
<circle class="st1" cx="32" cy="32" r="18"/>
</svg>
