<?xml version="1.0" encoding="utf-8"?>
<!-- Generator: Adobe Illustrator 25.2.1, SVG Export Plug-In . SVG Version: 6.00 Build 0)  -->
<svg version="1.1" id="Слой_2" xmlns="http://www.w3.org/2000/svg" xmlns:xlink="http://www.w3.org/1999/xlink" x="0px" y="0px"
	 viewBox="0 0 64 64" style="enable-background:new 0 0 64 64;" xml:space="preserve">
<style type="text/css">
	.st0{fill:#010202;}
</style>
<path class="st0" d="M43.3,23.7H20.7c-1.1,0-1.9-0.9-1.9-1.9v-0.6c0-1.1,0.9-1.9,1.9-1.9h22.6c1.1,0,1.9,0.9,1.9,1.9v0.6
	C45.2,22.8,44.4,23.7,43.3,23.7z"/>
<path class="st0" d="M43.3,34.2H20.7c-1.1,0-1.9-0.9-1.9-1.9v-0.6c0-1.1,0.9-1.9,1.9-1.9h22.6c1.1,0,1.9,0.9,1.9,1.9v0.6
	C45.2,33.4,44.4,34.2,43.3,34.2z"/>
<path class="st0" d="M43.3,44.8H20.7c-1.1,0-1.9-0.9-1.9-1.9v-0.6c0-1.1,0.9-1.9,1.9-1.9h22.6c1.1,0,1.9,0.9,1.9,1.9v0.6
	C45.2,44,44.4,44.8,43.3,44.8z"/>
</svg>
