<?xml version="1.0" encoding="utf-8"?>
<!-- Generator: Adobe Illustrator 25.2.1, SVG Export Plug-In . SVG Version: 6.00 Build 0)  -->
<svg version="1.1" xmlns="http://www.w3.org/2000/svg" xmlns:xlink="http://www.w3.org/1999/xlink" x="0px" y="0px"
	 viewBox="0 0 64 64" style="enable-background:new 0 0 64 64;" xml:space="preserve">
<style type="text/css">
	.st0{opacity:0.7;fill:#FBBC20;}
	.st1{fill:none;stroke:#010202;stroke-width:4;stroke-miterlimit:10;}
	.st2{fill:none;stroke:#010202;stroke-width:2;stroke-miterlimit:10;}
</style>
<g id="Слой_2">
	<circle class="st0" cx="32" cy="32.5" r="24.3"/>
	<ellipse class="st1" cx="32" cy="32" rx="24.7" ry="24.8"/>
	<path class="st1" d="M37.7,66.2"/>
	<ellipse class="st2" cx="32" cy="32" rx="18.8" ry="18.6"/>
	<g>
		<path d="M32.1,22.5c1.3,0,2.5,0.3,3.7,0.8c0.6,0.3,1,0.4,1.2,0.4c0.2,0,0.4,0,0.8-0.1c0.1,0,0.2,0,0.4,0c0.5,0,0.9,0.2,1.2,0.6
			c0.8,1,1.3,2.3,1.3,3.8c0,1.1-0.4,1.8-1.1,2.3c-0.4,0.3-0.8,0.4-1.3,0.4c-0.4,0-0.8-0.1-1.1-0.3s-0.6-0.5-0.8-1
			c-0.4-0.7-0.7-1.2-0.9-1.5c-0.2-0.3-0.5-0.6-0.9-0.8c-0.9-0.6-1.7-0.9-2.7-0.9c-0.9,0-1.6,0.3-2.2,1c-0.5,0.7-0.8,1.5-0.8,2.6
			c0,1.5,0.4,2.9,1.1,4.2c1,1.7,2.5,2.5,4.5,2.5c0.7,0,1.4-0.1,2.1-0.4s1.2-0.5,1.6-0.9c0.3-0.3,0.6-0.5,0.8-0.5
			c0.3,0,0.6,0.1,0.8,0.4c0.2,0.3,0.3,0.6,0.3,1c0,0.5-0.2,1.1-0.5,1.7c-0.3,0.6-0.7,1.1-1.1,1.5c-0.2,0.1-0.6,0.3-1.1,0.4
			C37,39.8,36.6,40,36,40.3c-1.3,0.6-2.7,0.9-4.1,0.9c-1.5,0-2.9-0.3-4.4-1c-1.7-0.8-3-1.9-4-3.5c-1-1.5-1.5-3.1-1.5-4.8
			c0-2,0.6-3.7,1.8-5.3c1.1-1.4,2.4-2.5,4.1-3.2C29.4,22.8,30.7,22.5,32.1,22.5z"/>
	</g>
</g>
<g id="Слой_3">
</g>
</svg>
